<svg xmlns="http://www.w3.org/2000/svg" viewBox="0 0 399.44 78.82"><defs><style>.a,.b,.c,.e,.f,.g,.h,.i,.j{fill:none;stroke:#fff;}.a,.g,.j{stroke-miterlimit:10;}.a,.b,.e{stroke-width:1.5px;}.b,.f,.j{stroke-linecap:round;}.b,.c,.e,.f,.h{stroke-linejoin:round;}.c,.e{stroke-linecap:square;}.d{fill:#fff;}.i{stroke-linejoin:bevel;}</style></defs><title>boefers_logo</title><path class="a" d="M87.46,22.08l2.13-1.23,21.6,37.74,9-42.1,2.48.55L112.28,65.62,87.46,22.08Z"/><path class="a" d="M149.82,54.28l1.76,1.87-6.09,4-6.29,1.26-11.3-5-4.78-11.47,4.43-10.34,10.55-4.28,11.2,4.16,5,9.45V60h-2.54V43.93l-4.26-7.53-9.28-3.55-8.89,3.55-3.68,8.73,4,9.52,9.54,4.26,5.38-1.1,5.24-3.53Z"/><path class="a" d="M176.92,21.3l-8,2.55-5.76,7-1.07,17.35-2.4-.14,1.75-28.67,2.47.15-.42,5.85,6-5,7.67-1.68,11.31,6,2.6,9.83L190.2,50l-2.53-.16.94-15.38-2-8.23-9.71-4.91Z"/><path class="a" d="M234.17,30.57l.93.6,9.47,18.74-6.19,11.94L224.8,66l-21.11-2.53,6.81-56.8L226,8.31,235.75,12l4.47,8.47,0,1-.14,1.13-1.86,5.59-2.79,2-1.24.42Zm-22.51-3.84,17.16,2.05,1.45.1,1.51-.4,3.36-2.62,1.45-4.08.08-1.39-3.13-5.9-7.93-3-12-1.44-2,16.71Zm29.39,22.71-2.86-11.2L230,32.12,227,31.75l-15.7-1.88L207.59,60.7l17.59,2.11,10.33-3.38,5.54-10Z"/><path class="a" d="M264,26.57,275,31,279.59,42l-4.46,11-10.91,4.6-11-4.47-4.59-10.87,4.46-11.06L264,26.57Zm0,2.54-9,3.85-3.78,9.27L255,51.31,264.22,55l9-3.85L277.05,42l-3.84-9.07L264,29.11Z"/><path class="a" d="M292.57,62.1l5.21,1.31,8.73-3.65L309,56.11l1.07-4.75,2.54.26-1.3,5.53-3,4.43-4.72,3.26L298,66l-8.4-2.48-5.24-5.63-1.92-7.26,2.08-7.46,5.64-5.57,7.45-2,7.3,2.22,1,.58L292.57,62.1Zm-5.86-17.78L285,50.58l1.37,5.57,4,4.46,12.11-21.43-4.82-1.11-6.32,1.66-4.69,4.59Z"/><path class="a" d="M317,38.2l1.69-.18-.93-8.68.17-3.59,1.6-3.08,2-1.82,2.38-1,.59,2.49-2.93,2-1.15,2.16-.11,2.63.93,8.68,4.86-.52.27,2.52-4.86.52,2.75,25.58-2.53.27L319,40.54l-1.69.18L317,38.2Z"/><path class="a" d="M336.54,53.14l4.5,2.93,9.44-.59L354,52.85l2.57-4.14,2.32,1.08-3.05,4.8-4.27,3.21-5.53,1.53-5.63-.77-7.13-5.09-3.11-7,.56-7.49,4.41-6.36,7.14-3.42,7.71.53,6.17,4.48.73.87-20.39,18.1Zm.28-18.72-3.65,5.35-.53,5.71L335,51l18.45-16.29-4.19-2.62-6.51-.5-5.93,2.81Z"/><path class="a" d="M366.64,60.08,364,60l.75-14.69,2.2-6.55,3.26-4.09,4.1-2.67,5.79-1.1V33.4l-4.8.94L372,36.47l-3.42,4.79-1.24,4.11-.69,14.71Z"/><path class="a" d="M397.56,36.51l.91,2.35-2.47,1-2.41,2.22-1.83,9.35-2.41,11.3L386,65.9l-4.43,1.17-.26-2.54,3.52-.78,2.21-2.15,4.3-20.85L394.11,38l3.45-1.5Z"/><path class="b" d="M32.74,48.21c-.79,1.56-.79,4.18-4.19,4.18-3.92.26-4.18-2.7-4.18-4.18l4.18-16.74"/><line class="c" x1="37.59" y1="49.5" x2="41.77" y2="66.23"/><line class="c" x1="20.18" y1="52.39" x2="16" y2="64.94"/><path class="d" d="M28.55,57.59l4.13,2.06H24.42l4.13-2.06m0-1.12-8.37,4.18H36.92l-8.37-4.18Z"/><path class="d" d="M28.55,58.26l2,1h-4l2-1m0-1.67-8.37,4.18H36.92l-8.37-4.18Z"/><line class="e" x1="28.55" y1="31.47" x2="7.63" y2="27.29"/><path class="f" d="M49.47,48.21s-.92,4-1.93,8.14c-.85,3.53-1.77,7.17-2.25,8.59-2.36,2.4-12.55,4-16.74,4.19-4.18-.49-15.43-3.88-16.73-4.19-.53-.48-8.37-20.09-8.43-21a27.77,27.77,0,0,1,.06-4.08C4.06,35.32,7.63,22.1,7.63,22.1"/><path class="f" d="M32.74,45.85c2.61-1.31,3.16,2.15,2.35,2.36"/><polygon class="d" points="20.13 31.53 20.13 35.66 16 35.66 16 35.65 20.13 31.53"/><polygon class="g" points="20.13 31.53 20.13 31.48 15.94 31.48 15.94 35.66 16 35.66 20.13 35.66 20.13 31.53"/><polyline class="g" points="20.18 31.47 20.13 31.53 16 35.65"/><polygon class="d" points="41.05 31.53 41.05 35.66 36.92 35.66 36.92 35.65 41.05 31.53"/><polygon class="g" points="41.05 31.53 41.05 31.48 36.86 31.48 36.86 35.66 36.92 35.66 41.05 35.66 41.05 31.53"/><polyline class="g" points="41.1 31.47 41.05 31.53 36.92 35.65"/><line class="h" x1="13.38" y1="37.53" x2="21.17" y2="37.79"/><line class="h" x1="35.82" y1="37.79" x2="42.09" y2="37.79"/><line class="b" x1="58.1" y1="43.8" x2="47.64" y2="56.09"/><line class="e" x1="9.46" y1="24.15" x2="28.55" y2="31.47"/><line class="e" x1="32.74" y1="31.51" x2="45.26" y2="25.06"/><line class="i" x1="26.97" y1="58.07" x2="27.77" y2="52.39"/><line class="i" x1="30.34" y1="58.07" x2="29.34" y2="52.39"/><polyline class="f" points="51.04 52.39 66.21 48.21 82.94 60.76 82.94 60.8 82.94 78.32 12.08 78.32 11.82 69.13 14.95 65.73"/><polyline class="j" points="66.21 42.45 64.38 39.36 62.81 41.71 62.02 37.26 60.72 38.83 58.36 31.85 57.84 33.04 60.45 27.55 57.84 23.1 54.96 27.33 54.7 30.2 53.66 27.07 57.84 14.73 38.49 20.53 40.84 18.96 26.46 20.49 29.6 18.96 32.74 17.61 29.6 18.96 11.29 22.06 14.17 20.27 17.31 18.39 14.17 20.27 3.45 23.1 7.63 14.78 3.45 14.78 24.63 8.5 20.18 6.41 57.84 6.41 56.27 3.01 59.93 5.88 60.19 1.96 62.29 6.41 65.16 7.98 62.02 10.59 70.39 23.1 70.39 23.14 70.33 31.37 70.39 31.47 66.21 39.84 66.21 39.88 66.15 48.1"/><polyline class="f" points="56.34 28.44 57.51 26.67 58.49 28.24 57.32 30.2"/><line class="e" x1="8.94" y1="26.02" x2="28.55" y2="31.51"/><polyline class="e" points="46.07 26.02 32.74 31.51 45.29 27.29"/><line class="f" x1="20.97" y1="24.19" x2="37.44" y2="24.71"/><line class="f" x1="25.68" y1="27.07" x2="33.78" y2="27.85"/><line class="f" x1="28.81" y1="29.94" x2="32.74" y2="29.68"/></svg>